<?xml version="1.0" encoding="UTF-8"?>
<svg id="Layer_2" data-name="Layer 2" xmlns="http://www.w3.org/2000/svg" viewBox="0 0 656.3 682.14">
  <defs>
    <style>
      .cls-1 {
        fill: gray;
      }

      .cls-2 {
        fill: #ffbf00;
      }
    </style>
  </defs>
  <g id="_Ñëîé_1" data-name="Ñëîé 1">
    <path class="cls-2" d="M199.15,463.37c21.86,20.96,34.41,40.05,34.41,69.76v3.26c0,12.15,9.77,21.99,21.84,21.99h145.48c12.07,0,21.86-9.83,21.86-21.99v-3.26c0-29.96,12.4-48.51,34.96-70.29,37.04-35.79,57.44-83.94,57.44-135.58s-19.8-98.29-55.71-133.89c-35.27-35-81.79-54.15-131.26-54.15-.9,0-1.8,0-2.69.02-48.15.67-93.76,19.94-128.4,54.27-34.64,34.31-54.48,79.87-55.86,128.29-1.5,53.25,19.61,104.84,57.92,141.55ZM359.92,201.1c52.81,0,95.78,42.97,95.78,95.8,0,8.64-6.99,15.66-15.66,15.66s-15.66-7.02-15.66-15.66c0-35.54-28.92-64.48-64.46-64.48-8.67,0-15.66-6.99-15.66-15.66s7-15.66,15.66-15.66Z"/>
    <path class="cls-1" d="M406.75,603.04c0-12.13-9.79-21.97-21.86-21.97h-113.47c-12.07,0-21.86,9.83-21.86,21.97s9.79,21.99,21.86,21.99h113.47c12.07,0,21.86-9.83,21.86-21.99Z"/>
    <path class="cls-1" d="M328.18,682.14c24.31,0,45.77-14.41,58.3-36.21h-116.64c12.53,21.8,33.99,36.21,58.34,36.21Z"/>
    <path class="cls-2" d="M328.15,107.72c-11.53,0-20.88-9.35-20.88-20.88V20.88c0-11.53,9.35-20.88,20.88-20.88s20.88,9.35,20.88,20.88v65.95c0,11.53-9.35,20.88-20.88,20.88Z"/>
    <path class="cls-2" d="M498.79,178.4c-5.34,0-10.69-2.04-14.77-6.12-8.15-8.15-8.15-21.38,0-29.53l46.63-46.64c8.16-8.15,21.37-8.16,29.53,0,8.15,8.15,8.15,21.38,0,29.53l-46.63,46.64c-4.08,4.08-9.42,6.12-14.77,6.12Z"/>
    <path class="cls-2" d="M635.42,349.03h-65.95c-11.53,0-20.88-9.35-20.88-20.88s9.35-20.88,20.88-20.88h65.95c11.53,0,20.88,9.35,20.88,20.88s-9.35,20.88-20.88,20.88Z"/>
    <path class="cls-2" d="M157.51,178.4c-5.34,0-10.69-2.04-14.77-6.12l-46.64-46.64c-8.15-8.15-8.15-21.38,0-29.53,8.16-8.15,21.37-8.15,29.53,0l46.64,46.64c8.15,8.15,8.15,21.38,0,29.53-4.08,4.08-9.42,6.12-14.77,6.12Z"/>
    <path class="cls-2" d="M498.79,477.91c-5.34,0-10.69,2.04-14.77,6.12-8.15,8.15-8.15,21.38,0,29.53l46.63,46.64c8.16,8.15,21.37,8.16,29.53,0,8.15-8.15,8.15-21.38,0-29.53l-46.63-46.64c-4.08-4.08-9.42-6.12-14.77-6.12Z"/>
    <path class="cls-2" d="M157.51,477.91c-5.34,0-10.69,2.04-14.77,6.12l-46.64,46.64c-8.15,8.15-8.15,21.38,0,29.53,8.16,8.15,21.37,8.15,29.53,0l46.64-46.64c8.15-8.15,8.15-21.38,0-29.53-4.08-4.08-9.42-6.12-14.77-6.12Z"/>
    <path class="cls-2" d="M86.83,349.03H20.88c-11.53,0-20.88-9.35-20.88-20.88s9.35-20.88,20.88-20.88h65.95c11.53,0,20.88,9.35,20.88,20.88s-9.35,20.88-20.88,20.88Z"/>
  </g>
</svg>