<?xml version="1.0" encoding="UTF-8"?>
<svg id="Layer_2" xmlns="http://www.w3.org/2000/svg" version="1.1" viewBox="0 0 24 24">
  <!-- Generator: Adobe Illustrator 29.8.2, SVG Export Plug-In . SVG Version: 2.1.1 Build 3)  -->
  <defs>
    <style>
      .st0 {
        fill: none;
      }

      .st1 {
        fill: #555;
      }
    </style>
  </defs>
  <g id="Layer_1-2">
    <g>
      <rect class="st0" width="24" height="24"/>
      <g>
        <path class="st1" d="M18.5,6H5.5c-.6,0-1,.4-1,1s.4,1,1,1h.5v12.4h0c0,.1,0,.2,0,.3.2.2.4.3.7.3h10c.5,0,1-.5,1-1h0v-12h.5c.5,0,1-.4,1-1s-.5-1-1-1h.2ZM16,8v11h-1v-11h1ZM13,8v11h-2v-11h2ZM9,8v11h-1v-11h1Z"/>
        <path class="st1" d="M10,5h4c.6,0,1-.4,1-1s-.4-1-1-1h-4c-.6,0-1,.5-1,1s.4,1,1,1Z"/>
      </g>
    </g>
  </g>
</svg>