<?xml version="1.0" encoding="UTF-8"?>
<svg id="Layer_2" xmlns="http://www.w3.org/2000/svg" version="1.1" viewBox="0 0 24 24">
  <!-- Generator: Adobe Illustrator 29.8.2, SVG Export Plug-In . SVG Version: 2.1.1 Build 3)  -->
  <defs>
    <style>
      .st0 {
        fill: none;
      }

      .st1 {
        fill: #555;
      }
    </style>
  </defs>
  <g id="Layer_1-2">
    <g>
      <rect class="st0" width="24" height="24"/>
      <g>
        <polygon class="st0" points="4.3 17.1 4.3 19.7 6.9 19.7 18.9 7.7 16.3 5.1 4.3 17.1"/>
        <path class="st1" d="M20.3,6.3l-2.6-2.6-.7-.7c-.4-.4-1-.4-1.4,0l-.7.7L4.3,14.3l-1.7,1.7c-.2.2-.3.4-.3.7v4c0,.5.5,1,1,1h4c.3,0,.5-.1.7-.3l1.7-1.7,10.6-10.6.7-.7c.4-.4.4-1,0-1.4l-.7-.7h0ZM6.9,19.7h-2.6v-2.6l12-12,2.6,2.6s-12,12-12,12Z"/>
      </g>
    </g>
  </g>
</svg>