<?xml version="1.0" encoding="UTF-8"?>
<svg id="Layer_2" data-name="Layer 2" xmlns="http://www.w3.org/2000/svg" viewBox="0 0 823.87 823.87">
  <g id="_ëîé_1" data-name="‘ëîé_1">
    <g>
      <g>
        <path d="M671.39,823.87h-94.33c-13.81,0-25-11.19-25-25s11.19-25,25-25h94.33c56.51,0,102.49-45.98,102.49-102.49v-94.33c0-13.81,11.19-25,25-25s25,11.19,25,25v94.33c0,84.08-68.41,152.49-152.49,152.49Z"/>
        <path d="M798.87,271.82c-13.81,0-25-11.19-25-25v-94.33c0-56.51-45.98-102.49-102.49-102.49h-94.33c-13.81,0-25-11.19-25-25s11.19-25,25-25h94.33c84.08,0,152.49,68.41,152.49,152.49v94.33c0,13.81-11.19,25-25,25Z"/>
        <path d="M246.82,823.87h-94.33C68.41,823.87,0,755.47,0,671.39v-94.33c0-13.81,11.19-25,25-25s25,11.19,25,25v94.33c0,56.51,45.98,102.49,102.49,102.49h94.33c13.81,0,25,11.19,25,25s-11.19,25-25,25Z"/>
        <path d="M25,271.82c-13.81,0-25-11.19-25-25v-94.33C0,68.41,68.41,0,152.49,0h94.33c13.81,0,25,11.19,25,25s-11.19,25-25,25h-94.33c-56.51,0-102.49,45.98-102.49,102.49v94.33c0,13.81-11.19,25-25,25Z"/>
      </g>
      <g>
        <path d="M607.54,586.79H216.33c-30.17,0-54.72-24.55-54.72-54.73v-189.1c0-30.18,24.55-54.72,54.72-54.72h62.26c2.01,0,3.8-1.27,4.46-3.17l15.78-45.04c7.68-21.91,28.43-36.63,51.65-36.63h122.91c23.21,0,43.97,14.72,51.65,36.63l15.78,45.04c.66,1.89,2.46,3.17,4.46,3.17h62.26c30.17,0,54.72,24.55,54.72,54.72v189.1c0,30.18-24.55,54.73-54.72,54.73ZM216.33,338.24c-2.61,0-4.72,2.12-4.72,4.72v189.1c0,2.61,2.12,4.73,4.72,4.73h391.21c2.61,0,4.72-2.12,4.72-4.73v-189.1c0-2.6-2.12-4.72-4.72-4.72h-62.26c-23.22,0-43.97-14.72-51.65-36.63h0s-15.78-45.04-15.78-45.04c-.66-1.89-2.46-3.17-4.46-3.17h-122.91c-2.01,0-3.8,1.27-4.46,3.16l-15.78,45.04c-7.68,21.91-28.43,36.63-51.65,36.63h-62.26Z"/>
        <path d="M411.94,516.64c-57.48,0-104.25-46.77-104.25-104.25s46.77-104.25,104.25-104.25,104.25,46.77,104.25,104.25-46.76,104.25-104.25,104.25ZM411.94,358.14c-29.91,0-54.25,24.34-54.25,54.25s24.34,54.25,54.25,54.25,54.25-24.34,54.25-54.25-24.33-54.25-54.25-54.25Z"/>
      </g>
    </g>
  </g>
</svg>