<?xml version="1.0" encoding="UTF-8"?>
<svg id="Layer_2" xmlns="http://www.w3.org/2000/svg" version="1.1" viewBox="0 0 24 24">
  <!-- Generator: Adobe Illustrator 29.8.2, SVG Export Plug-In . SVG Version: 2.1.1 Build 3)  -->
  <defs>
    <style>
      .st0 {
        fill: none;
      }

      .st1 {
        fill: #555;
      }
    </style>
  </defs>
  <g id="Layer_1-2">
    <g>
      <rect class="st0" width="24" height="24"/>
      <path class="st1" d="M16,14.3c-.7,0-1.4.3-1.9.7l-5.1-2.9h0l5.1-2.9c.5.4,1.2.7,1.9.7,1.7,0,3-1.3,3-3s-1.3-3-3-3-3,1.3-3,3,0,.4,0,.6l-4.8,2.8c-.6-.7-1.4-1.1-2.3-1.1-1.7,0-3,1.3-3,3s1.3,3,3,3,1.8-.4,2.3-1.1l4.8,2.8c0,.2,0,.4,0,.6,0,1.7,1.3,3,3,3s3-1.3,3-3-1.3-3-3-3h0Z"/>
    </g>
  </g>
</svg>