<?xml version="1.0" encoding="UTF-8"?>
<svg id="Layer_1" xmlns="http://www.w3.org/2000/svg" version="1.1" xmlns:serif="http://www.serif.com/" viewBox="0 0 456 456">
  <!-- Generator: Adobe Illustrator 29.8.2, SVG Export Plug-In . SVG Version: 2.1.1 Build 3)  -->
  <defs>
    <style>
      .st0 {
        fill: #fff;
        stroke: #fff;
        stroke-miterlimit: 10;
        stroke-width: 2px;
      }
    </style>
  </defs>
  <g>
    <g>
      <path class="st0" d="M136.8,179.9c-2.2,0-3.9-1.8-3.9-3.9v-40.1c0-2.2,1.8-3.9,3.9-3.9h40.1c2.2,0,3.9,1.8,3.9,3.9s-1.8,3.9-3.9,3.9h-36.2v36.2c0,2.2-1.8,3.9-3.9,3.9h0Z"/>
      <path class="st0" d="M321.1,179.9c-2.2,0-3.9-1.8-3.9-3.9v-36.2h-36.2c-2.2,0-3.9-1.8-3.9-3.9s1.8-3.9,3.9-3.9h40.1c2.2,0,3.9,1.8,3.9,3.9v40.1c0,2.2-1.8,3.9-3.9,3.9Z"/>
      <path class="st0" d="M177,323.9h-40.1c-2.2,0-3.9-1.8-3.9-3.9v-40.1c0-2.2,1.8-3.9,3.9-3.9s3.9,1.8,3.9,3.9v36.2h36.2c2.2,0,3.9,1.8,3.9,3.9s-1.8,3.9-3.9,3.9Z"/>
    </g>
    <g>
      <path class="st0" d="M169.9,288.6c-2.2,0-3.9-1.8-3.9-3.9v-113.3c0-2.2,1.8-3.9,3.9-3.9s3.9,1.8,3.9,3.9v113.3c0,2.2-1.8,3.9-3.9,3.9Z"/>
      <path class="st0" d="M183.8,272.1c-2.2,0-3.9-1.8-3.9-3.9v-96.8c0-2.2,1.8-3.9,3.9-3.9s3.9,1.8,3.9,3.9v96.8c0,2.2-1.8,3.9-3.9,3.9Z"/>
      <path class="st0" d="M204.6,272.1c-2.2,0-3.9-1.8-3.9-3.9v-96.8c0-2.2,1.8-3.9,3.9-3.9s3.9,1.8,3.9,3.9v96.8c0,2.2-1.8,3.9-3.9,3.9Z"/>
      <path class="st0" d="M218.5,272.1c-2.2,0-3.9-1.8-3.9-3.9v-96.8c0-2.2,1.8-3.9,3.9-3.9s3.9,1.8,3.9,3.9v96.8c0,2.2-1.8,3.9-3.9,3.9Z"/>
      <path class="st0" d="M239.4,257.4c-2.2,0-3.9-1.8-3.9-3.9v-81.7c0-2.2,1.8-3.9,3.9-3.9s3.9,1.8,3.9,3.9v81.7c0,2.2-1.8,3.9-3.9,3.9Z"/>
      <path class="st0" d="M271.8,264.6c-2.2,0-3.9-1.8-3.9-3.9v-89.4c0-2.2,1.8-3.9,3.9-3.9s3.9,1.8,3.9,3.9v89.4c0,2.2-1.8,3.9-3.9,3.9h0Z"/>
      <path class="st0" d="M255.6,250.6c-2.2,0-3.9-1.8-3.9-3.9v-75.4c0-2.2,1.8-3.9,3.9-3.9s3.9,1.8,3.9,3.9v75.4c0,2.2-1.8,3.9-3.9,3.9h0Z"/>
      <path class="st0" d="M288,259.6c-2.2,0-3.9-1.8-3.9-3.9v-84.3c0-2.2,1.8-3.9,3.9-3.9s3.9,1.8,3.9,3.9v84.3c0,2.2-1.8,3.9-3.9,3.9Z"/>
    </g>
  </g>
  <path class="st0" d="M281.2,323.9c-.9,0-1.8-.3-2.6-1l-47.3-41.2c-.8-.7-1.2-1.6-1.3-2.7,0-1.1.2-2.1,1-2.9l16.8-19.3c1.4-1.6,3.9-1.8,5.6-.4l25.4,22.2,50.5-55.8c.7-.7,1.7-1.2,2.7-1.3,1.1,0,2.1.3,2.9,1l19,17.2c1.6,1.5,1.7,3.9.2,5.6l-70,77.3c-.7.8-1.9,1.3-3,1.3h0ZM239.5,278.4l41.4,36.1,64.7-71.5-13.1-11.9-50.5,55.7c-1.5,1.6-3.9,1.7-5.5.3l-25.3-22.1-11.7,13.4h0Z"/>
</svg>