<?xml version="1.0" encoding="UTF-8"?>
<svg id="Layer_2" xmlns="http://www.w3.org/2000/svg" version="1.1" xmlns:xlink="http://www.w3.org/1999/xlink" viewBox="0 0 512 512">
  <!-- Generator: Adobe Illustrator 29.8.2, SVG Export Plug-In . SVG Version: 2.1.1 Build 3)  -->
  <defs>
    <style>
      .st0 {
        fill: #fff;
      }

      .st1 {
        display: none;
      }

      .st2 {
        fill: url(#linear-gradient);
      }
    </style>
    <linearGradient id="linear-gradient" x1="0" y1="256" x2="512" y2="256" gradientTransform="translate(0 512) scale(1 -1)" gradientUnits="userSpaceOnUse">
      <stop offset="0" stop-color="#ec9123"/>
      <stop offset="1" stop-color="#ed1c24"/>
    </linearGradient>
  </defs>
  <g id="Layer_1-2">
    <rect class="st2" width="512" height="512"/>
    <g class="st1">
      <g>
        <g>
          <path class="st0" d="M81,164.9c-4.1,0-7.5-3.4-7.5-7.5v-76.4c0-4.1,3.4-7.5,7.5-7.5h76.4c4.1,0,7.5,3.4,7.5,7.5s-3.4,7.5-7.5,7.5h-68.9v68.9c0,4.1-3.4,7.5-7.5,7.5Z"/>
          <path class="st0" d="M431.5,164.9c-4.1,0-7.5-3.4-7.5-7.5v-68.9h-68.9c-4.1,0-7.5-3.4-7.5-7.5s3.4-7.5,7.5-7.5h76.4c4.1,0,7.5,3.4,7.5,7.5v76.4c0,4.1-3.4,7.5-7.5,7.5Z"/>
          <path class="st0" d="M157.4,439h-76.4c-4.1,0-7.5-3.4-7.5-7.5v-76.4c0-4.1,3.4-7.5,7.5-7.5s7.5,3.4,7.5,7.5v68.9h68.9c4.1,0,7.5,3.4,7.5,7.5s-3.4,7.5-7.5,7.5Z"/>
        </g>
        <g>
          <path class="st0" d="M143.9,371.6c-4.1,0-7.5-3.4-7.5-7.5v-215.7c0-4.1,3.4-7.5,7.5-7.5s7.5,3.4,7.5,7.5v215.7c0,4.1-3.4,7.5-7.5,7.5Z"/>
          <path class="st0" d="M170.2,340.1c-4.1,0-7.5-3.4-7.5-7.5v-184.2c0-4.1,3.4-7.5,7.5-7.5s7.5,3.4,7.5,7.5v184.2c0,4.1-3.4,7.5-7.5,7.5Z"/>
          <path class="st0" d="M210,340.1c-4.1,0-7.5-3.4-7.5-7.5v-184.2c0-4.1,3.4-7.5,7.5-7.5s7.5,3.4,7.5,7.5v184.2c0,4.1-3.4,7.5-7.5,7.5Z"/>
          <path class="st0" d="M236.3,340.1c-4.1,0-7.5-3.4-7.5-7.5v-184.2c0-4.1,3.4-7.5,7.5-7.5s7.5,3.4,7.5,7.5v184.2c0,4.1-3.4,7.5-7.5,7.5Z"/>
          <path class="st0" d="M276.1,312.2c-4.1,0-7.5-3.4-7.5-7.5v-155.4c0-4.1,3.4-7.5,7.5-7.5s7.5,3.4,7.5,7.5v155.4c0,4.1-3.4,7.5-7.5,7.5Z"/>
          <path class="st0" d="M337.8,325.9c-4.1,0-7.5-3.4-7.5-7.5v-170c0-4.1,3.4-7.5,7.5-7.5s7.5,3.4,7.5,7.5v170c0,4.1-3.4,7.5-7.5,7.5Z"/>
          <path class="st0" d="M306.9,299.4c-4.1,0-7.5-3.4-7.5-7.5v-143.5c0-4.1,3.4-7.5,7.5-7.5s7.5,3.4,7.5,7.5v143.5c0,4.1-3.4,7.5-7.5,7.5Z"/>
          <path class="st0" d="M368.6,316.3c-4.1,0-7.5-3.4-7.5-7.5v-160.4c0-4.1,3.4-7.5,7.5-7.5s7.5,3.4,7.5,7.5v160.4c0,4.1-3.4,7.5-7.5,7.5Z"/>
        </g>
      </g>
      <path class="st0" d="M355.5,439c-1.8,0-3.5-.6-4.9-1.9l-89.9-78.5c-1.5-1.3-2.4-3.2-2.5-5.1-.1-2,.5-3.9,1.8-5.4l32.1-36.7c2.7-3.1,7.5-3.4,10.6-.7l48.3,42.1,96.2-106.1c1.3-1.5,3.2-2.4,5.2-2.5,2,0,3.9.6,5.4,1.9l36.1,32.7c3.1,2.8,3.3,7.5.5,10.6l-133.2,147c-1.5,1.6-3.5,2.5-5.6,2.5ZM276.3,352.3l78.7,68.7,123.2-136-25-22.7-96.1,106c-2.7,3-7.4,3.3-10.5.6l-48.2-42-22.2,25.4Z"/>
    </g>
  </g>
</svg>