<?xml version="1.0" encoding="UTF-8"?>
<svg id="Layer_2" data-name="Layer 2" xmlns="http://www.w3.org/2000/svg" xmlns:xlink="http://www.w3.org/1999/xlink" viewBox="0 0 512 512">
  <defs>
    <style>
      .cls-1 {
        fill: none;
        stroke: #fff;
        stroke-linecap: round;
        stroke-linejoin: round;
        stroke-width: 15px;
      }

      .cls-2 {
        fill: url(#linear-gradient);
      }
    </style>
    <linearGradient id="linear-gradient" x1="0" y1="256" x2="512" y2="256" gradientUnits="userSpaceOnUse">
      <stop offset="0" stop-color="#ec9123"/>
      <stop offset="1" stop-color="#ed1c24"/>
    </linearGradient>
  </defs>
  <g id="Layer_1-2" data-name="Layer 1">
    <rect class="cls-2" width="512" height="512"/>
    <g>
      <g>
        <g>
          <polyline class="cls-1" points="81 157.38 81 81 157.38 81"/>
          <polyline class="cls-1" points="355.08 81 431.47 81 431.47 157.38"/>
          <polyline class="cls-1" points="157.38 431.47 81 431.47 81 355.08"/>
        </g>
        <g>
          <line class="cls-1" x1="143.9" y1="148.4" x2="143.9" y2="364.07"/>
          <line class="cls-1" x1="170.22" y1="148.4" x2="170.22" y2="332.62"/>
          <line class="cls-1" x1="210.02" y1="148.4" x2="210.02" y2="332.62"/>
          <line class="cls-1" x1="236.34" y1="148.4" x2="236.34" y2="332.62"/>
          <line class="cls-1" x1="276.13" y1="304.74" x2="276.13" y2="149.3"/>
          <line class="cls-1" x1="337.75" y1="318.4" x2="337.75" y2="148.4"/>
          <line class="cls-1" x1="306.93" y1="291.86" x2="306.93" y2="148.4"/>
          <line class="cls-1" x1="368.56" y1="308.78" x2="368.56" y2="148.4"/>
        </g>
      </g>
      <polygon class="cls-1" points="355.54 431.47 265.68 353.02 297.74 316.3 351.55 363.28 452.65 251.74 488.77 284.48 355.54 431.47"/>
    </g>
  </g>
</svg>